<svg width="342" height="304" viewBox="0 0 342 304" fill="none" xmlns="http://www.w3.org/2000/svg">
<path d="M1 101.293C4.2098 128.164 7.20586 155.439 18.104 180.52C22.0317 189.56 27.099 200.053 35.2415 206.16C44.1118 212.812 48.3325 204.068 50.4041 196.018C53.9112 182.39 55.8586 167.393 53.8851 153.375C51.0258 133.064 42.8569 113.307 34.3043 94.8332C30.3936 86.3861 25.9446 78.2478 21.7859 69.9303C20.0136 66.3858 20.2462 68.7778 20.4135 71.5035C23.3513 119.346 35.9275 166.765 51.743 211.783C59.5498 234.005 68.5112 255.704 79.5579 276.517C83.8565 284.616 96.5765 308.848 93.5825 300.181C91.3902 293.835 85.3816 287.784 81.131 282.91C68.2514 268.141 54.189 254.334 40.0948 240.736C35.5327 236.334 29.3755 231.854 26.0702 226.276C24.3615 223.393 26.1861 222.512 28.112 220.586" stroke="#CBCBCB" stroke-width="2" stroke-linecap="round"/>
<path d="M74.5029 138.647C70.6353 135.022 72.1214 145.764 72.1599 147.216C72.3995 156.263 72.9325 165.645 75.7079 174.328C76.2278 175.955 78.367 182.555 81.0968 182.328C84.3057 182.06 86.2256 170.549 86.6196 168.638C88.7984 158.069 88.5977 146.902 87.6572 136.204C87.5322 134.781 87.3432 124.961 85.2138 123.719C84.9121 123.543 84.8113 124.313 84.7452 124.656C84.0841 128.086 84.2141 131.815 84.1762 135.267C84.0354 148.078 84.0917 161.159 87.8915 173.525C89.7097 179.442 93.0553 188.722 99.6735 190.964C105.331 192.88 108.414 183.687 109.648 180.018C117.696 156.089 114.993 128.046 107.439 104.439C107.004 103.081 106.94 101.464 105.966 100.423C104.093 98.4206 105.301 105.882 105.33 108.623C105.506 125.255 107.541 141.721 110.585 158.061C113.545 173.948 116.926 190.048 123.07 205.055C123.531 206.18 124.7 209.013 125.514 210.344C126.512 211.978 126.178 209.556 126.317 209.139" stroke="#CBCBCB" stroke-width="2" stroke-linecap="round"/>
<path d="M88.9623 92.2556C88.1665 90.3883 86.717 88.1068 86.3515 86.0968C86.2132 85.3356 87.1615 87.4176 87.6235 88.0381C91.1424 92.7645 95.356 96.9025 99.6732 100.891C110.743 111.119 122.915 119.685 135.488 127.936C144.551 133.884 156.081 139.535 163.169 147.986C166.624 152.105 167.178 157.062 165.612 162.111C161.793 174.429 151.675 184.879 144.257 195.08C137.908 203.814 130.682 213.18 127.823 223.799C127.096 226.499 126.784 228.847 127.522 231.431" stroke="#CBCBCB" stroke-width="2" stroke-linecap="round"/>
<path d="M133.547 230.226C147.466 210.541 162.405 191.046 172.441 168.972C179.181 154.148 183.621 138.304 186.332 122.28C187.289 116.618 188.439 99.414 187.704 105.109C184.434 130.453 183.763 156.446 183.219 181.959C182.904 196.692 182.465 211.885 185.629 226.376C185.736 226.867 186.97 235.434 187.771 231.43" stroke="#CBCBCB" stroke-width="2" stroke-linecap="round"/>
<path d="M155.84 195.884C164.012 191.465 171.165 189.644 180.14 187.75C183.468 187.048 188.608 186.736 190.784 183.834" stroke="#CBCBCB" stroke-width="2" stroke-linecap="round"/>
<path d="M191.988 188.654C198.933 186.035 199.398 186.495 205.779 180.42C215.412 171.248 224.417 159.569 228.974 146.948C232.716 136.586 231.482 123.384 227.401 113.276C226.362 110.701 222.736 101.405 218.33 103.167C214.643 104.642 212.4 110.104 211.067 113.343C207.805 121.267 205.962 129.859 204.406 138.246C199.711 163.552 191.197 210.031 223.318 221.556C233.69 225.278 244.659 222.733 252.706 215.23C265.199 203.581 263.02 186.021 263.684 170.579" stroke="#CBCBCB" stroke-width="2" stroke-linecap="round"/>
<path d="M246.213 120.573C251.926 136.902 257.433 153.175 264.957 168.772C267.375 173.783 269.599 179.292 273.827 183.097C279.435 188.145 287.006 162.875 287.651 160.738C292.996 143.024 295.903 124.457 299.366 106.314C303.958 82.2503 307.445 57.1283 316.938 34.3831C321.347 23.8197 326.532 11.5167 334.879 3.35493C337.065 1.21795 337.93 0.561196 340.804 1.27969" stroke="#CBCBCB" stroke-width="2" stroke-linecap="round"/>
</svg>
