<svg width="716" height="437" viewBox="0 0 716 437" fill="none" xmlns="http://www.w3.org/2000/svg">
<path d="M29.435 314.945C29.435 314.945 28.834 314.719 27.8377 314.387C26.5976 314.679 24.9571 315.076 23.0934 315.696C21.253 316.305 19.4778 316.873 18.1901 317.31C16.9222 317.698 16.0833 317.981 16.0833 317.981C16.0833 317.981 15.3264 321.131 14.3571 325.741C13.9654 328.131 13.5299 330.932 13.1177 333.945C12.726 337.005 12.2473 340.535 11.7392 344.19C11.3585 348.041 11.0935 352.092 10.8951 355.849C10.8101 359.737 10.8006 363.384 10.8379 366.563C11.0135 372.961 11.2038 377.287 11.2038 377.287C11.2038 377.287 10.5984 378.264 9.69435 379.706C8.8137 381.138 7.65267 383.013 6.51653 384.85C5.46311 386.525 4.44776 388.127 3.70107 389.291C2.95071 390.415 2.47269 391.14 2.47269 391.14C2.47269 391.14 2.09497 388.012 1.50352 382.578C1.28978 379.825 1.11997 376.438 0.956752 372.588C0.823548 368.711 0.719634 364.263 0.675013 359.441C0.713112 354.68 0.822948 349.636 1.03821 344.323C1.35888 338.963 1.83109 333.44 2.35087 327.994C2.68177 325.56 3.0544 323.095 3.47241 320.637C3.89921 318.232 4.32454 315.855 4.85382 313.461C5.41678 311.079 6.04782 308.598 6.67592 306.175C7.40652 303.762 8.19055 301.312 9.00899 298.972C9.77106 296.727 10.5485 294.517 11.353 292.337C12.1744 290.163 13.0975 287.904 14.0397 285.719C14.9921 283.558 15.9598 281.432 17.0792 279.143C18.3566 276.672 19.6479 274.265 20.9246 271.92C23.5139 267.313 26.0065 263.027 28.0628 259.434C30.177 255.941 32.1879 252.787 34.0635 249.929C35.966 247.101 37.7347 244.541 39.3262 242.31C40.8979 240.129 42.3971 238.134 43.7258 236.45C46.5917 232.922 48.3091 230.914 48.3091 230.914C48.3091 230.914 50.738 230.215 54.4605 229.186C56.3418 228.67 58.5885 228.064 60.6506 227.929C62.6066 227.967 64.5143 228.276 66.127 228.868C66.8774 230.424 67.8605 231.682 68.6679 233.018C69.52 234.264 70.3889 235.293 71.2227 236.114C72.853 237.927 73.7929 239.246 73.7929 239.246C74.7972 240.649 75.6054 242.081 76.4106 243.348C77.3323 244.465 78.0687 245.734 78.5482 247.213C78.7927 248.92 78.7883 250.792 78.5642 252.927C78.2875 255.197 78.0606 257.39 77.715 259.662C77.3797 261.958 76.9405 264.271 76.4105 266.568C75.9119 268.809 75.278 271.124 74.5269 273.49C73.7809 275.868 72.9054 278.428 71.9127 281.039C70.9537 283.663 69.8703 286.258 68.6609 288.853C67.1412 292.141 65.6676 295.088 64.232 297.74C62.8199 300.381 61.4158 302.753 60.0279 304.812C58.6399 306.87 57.3625 308.671 56.2183 310.107C55.0909 311.549 53.976 312.637 52.9936 313.262C51.9387 314.072 50.8882 314.797 49.8824 315.432C48.9 316.057 47.9571 316.582 47.0538 317.005C45.376 317.571 44.0685 317.613 43.0634 317.229L41.6008 316.725C41.6008 316.725 41.39 320.166 41.114 325.213C40.9807 327.811 40.8679 330.902 40.8116 334.123C40.8006 337.351 40.8305 340.673 40.9206 343.941C41.056 347.217 41.2316 350.489 41.4461 353.563C41.6877 356.667 41.9578 359.549 42.2081 362.035C42.8113 367.018 43.309 370.484 43.309 370.484C43.309 370.484 42.4225 370.021 41.1093 369.283C39.8267 368.616 38.1584 367.77 36.534 366.959C34.9945 366.279 33.5327 365.649 32.4082 365.248C31.2985 364.784 30.5811 364.484 30.5811 364.484C30.5811 364.484 30.1792 361.269 29.658 356.473C29.4318 354.074 29.2144 351.281 29.0073 348.288C28.869 345.292 28.7314 342.171 28.6501 339.178C28.5638 336.174 28.5045 333.2 28.5191 330.458C28.5624 327.718 28.6451 325.1 28.7886 322.749C29.1495 318.056 29.435 314.945 29.435 314.945ZM58.1804 276.762C60.2631 272.655 61.3633 268.951 61.3948 265.769C61.4154 264.253 61.1796 262.821 60.6914 261.514C60.2251 260.225 59.3876 259.14 58.2178 258.284C58.2178 258.284 57.6505 257.848 56.8936 257.203C56.1981 256.474 54.9954 255.48 53.7875 254.473C52.6946 253.346 51.5307 252.376 50.3667 252.076C49.1625 251.78 48.3939 251.586 48.3939 251.586C48.3939 251.586 46.9071 253.674 44.7117 256.853C43.6129 258.52 42.3552 260.493 41.0097 262.617C39.6547 264.814 38.2286 267.169 36.8063 269.563C35.411 271.988 34.0377 274.431 32.8093 276.726C31.4213 279.231 30.1402 281.662 29.0883 283.754C27.0685 287.973 25.7464 290.756 25.7464 290.756C25.7464 290.756 26.6864 290.513 28.1322 290.117C29.6065 289.724 31.6299 289.117 33.6855 288.553C35.7725 287.933 37.1246 288.249 37.8427 288.869C38.5762 289.525 39.0564 289.985 39.0564 289.985C39.7277 290.626 40.4253 290.977 41.1303 291.185C41.9077 291.431 42.6756 291.527 43.4597 291.533C45.0394 291.54 46.625 290.986 48.1967 289.921C49.7757 288.937 51.4258 287.35 53.1095 285.107C54.8122 282.938 56.5435 280.102 58.1804 276.762ZM102.212 434.47C102.212 434.47 101.005 433.881 99.0462 432.785C98.1656 432.207 97.1056 431.443 95.9051 430.517C94.7192 429.529 93.3627 428.182 91.8986 426.59C90.469 424.885 88.9588 422.964 87.4017 420.841C85.8923 418.571 84.3645 416.099 82.8997 413.517C81.492 410.714 80.0814 407.744 78.6635 404.695C77.2463 401.296 75.8525 398.11 74.365 395.188C72.6872 393.299 70.811 391.371 68.9355 389.54C67.1127 387.798 65.317 386.309 63.6077 384.921C61.9343 383.616 60.3633 382.545 58.8949 381.708C57.4549 380.873 56.1212 380.089 54.8891 379.219C53.6835 378.281 52.6059 377.413 51.6535 376.671C50.7766 375.911 50.0614 375.233 49.4882 374.688C48.2701 373.658 47.527 373.076 47.527 373.076C47.527 373.076 47.8184 371.414 48.3118 368.491C48.5761 367.021 48.9019 365.246 49.3148 363.224C49.7613 361.214 50.2782 358.951 50.8323 356.517C51.3199 354.155 51.8697 351.584 52.4956 348.868C53.1603 346.177 53.986 343.472 54.8989 340.742C55.3638 339.38 55.8704 337.987 56.3821 336.604C56.9457 335.214 57.516 333.806 58.1361 332.321C58.7093 330.856 59.3059 329.381 59.9245 327.924C60.5482 326.479 61.2898 324.857 62.0657 323.122C62.8703 321.388 63.6814 319.638 64.491 317.916C65.3387 316.122 66.2655 314.126 67.2062 312.193C68.1308 310.351 69.0773 308.528 70.0122 306.709C70.9872 304.887 71.944 303.087 72.9111 301.311C74.657 298.188 76.1585 295.592 77.5662 293.036C78.9717 290.412 80.356 287.867 81.7623 284.893C83.2308 281.711 84.6371 278.737 85.9072 276.186C87.2037 273.568 88.3588 270.913 89.3149 268.793C91.2212 264.665 92.3566 262.285 92.3566 262.285C92.3566 262.285 92.8727 262.38 93.9612 262.253C94.541 262.111 95.3082 261.887 96.1493 261.672C97.0138 261.447 97.9721 261.182 98.9493 260.991C99.9134 260.835 100.957 260.699 101.888 260.948C102.837 261.202 103.848 261.472 104.866 261.724C105.883 261.879 106.975 262.016 108.202 261.981C109.41 261.969 110.396 262.18 111.277 262.408C112.213 262.571 113.211 262.65 114.234 262.691C115.314 262.609 116.446 262.421 117.528 262.311C118.575 262.313 119.526 262.413 120.558 262.506C121.669 262.494 122.595 262.634 123.369 262.839C124.179 263.001 124.935 263.103 125.642 263.156C126.361 263.205 127.021 263.181 127.711 263.005C129.229 262.648 130.111 262.429 130.111 262.429C130.111 262.429 128.528 265.159 126.294 269.207C124.101 273.222 121.276 278.533 119.007 283.586C117.108 288.687 115.367 293.733 114.178 297.49C113.053 301.234 112.311 303.749 112.311 303.749C112.311 303.749 111.917 303.615 111.19 303.388C110.477 303.129 109.493 302.666 108.244 302.235C107.581 302.219 106.813 302.345 105.996 302.424C105.3 302.491 104.565 302.533 103.818 302.581C103.086 302.566 102.349 302.54 101.613 302.485C100.852 302.372 100.105 302.196 99.3714 301.986C98.6541 301.686 97.9549 301.364 97.2756 300.992C96.6314 300.604 95.9543 300.3 95.3211 300.033C94.6169 299.922 94.0056 299.673 93.439 299.335C92.8907 298.975 92.3907 298.566 91.9478 298.159C91.0753 297.313 90.1858 297.13 89.5284 296.999C88.8271 296.831 88.4384 296.708 88.4384 296.708C88.4384 296.708 87.5651 299.337 86.3257 303.298C85.1383 307.25 83.6413 312.441 82.2643 317.522C81.0937 321.705 80.0578 325.27 79.3375 327.706C78.6391 329.937 78.1559 331.321 78.1559 331.321C78.1559 331.321 79.4773 333.575 81.087 336.234C81.9567 337.138 82.9757 337.808 84.0803 338.483C84.6498 338.764 85.2479 339.047 85.8592 339.296C86.4668 339.504 87.0663 339.982 87.6739 340.413C88.3195 340.773 88.9959 340.979 89.6379 341.299C90.2836 341.658 90.919 341.994 91.5456 342.278C92.815 342.755 94.0302 343.173 95.0865 343.45C97.4151 344.148 99.0366 344.569 99.0366 344.569C99.0366 344.569 98.7848 346.577 98.4495 349.542C98.1559 352.475 97.7657 356.4 97.4238 360.275C97.1266 364.061 96.8791 367.77 96.7115 370.481C96.5738 373.164 96.4896 374.918 96.4896 374.918C96.4896 374.918 94.8455 373.934 92.6999 372.347C91.6728 371.499 90.4489 370.583 89.1868 369.74C88.5675 369.313 87.9563 368.841 87.3216 368.379C86.7001 367.883 86.0654 367.198 85.4285 366.444C84.6723 365.673 83.8569 364.829 83.0282 363.796C82.209 362.689 81.4082 361.561 80.6491 360.4C79.1814 357.874 77.8717 355.391 76.8154 353.327C74.3119 349.232 72.5565 345.953 72.5565 345.953C72.5565 345.953 72.137 346.876 71.5279 348.259C70.9437 349.603 70.2198 351.329 69.4123 353.343C68.5294 355.822 67.6861 358.424 66.9731 360.494C66.2871 362.594 65.8325 363.979 65.8325 363.979C65.8325 363.979 66.4599 364.584 67.5543 365.682C68.6743 366.839 70.2833 368.507 72.1742 371.043C73.0936 372.538 74.1133 374.199 75.2399 376.009C76.2582 377.922 77.3409 379.918 78.2339 381.704C78.9967 383.575 79.7968 385.5 80.6291 387.466C81.4856 389.519 82.3926 391.593 83.3223 393.558C84.2812 395.399 85.268 397.144 86.2541 398.792C87.2796 400.339 88.303 401.817 89.303 403.082C90.3007 404.278 91.2744 405.387 92.2084 406.374C93.1674 407.322 94.0356 408.031 94.8233 408.523C96.5853 409.106 98.1409 409.695 99.2484 410.313C100.352 410.891 100.999 411.222 100.999 411.222C100.999 411.222 100.997 412.716 100.994 414.908C101.03 417.097 101.229 420.038 101.502 423.087C101.721 426.172 101.911 429.159 102.032 431.283C102.144 433.23 102.212 434.47 102.212 434.47ZM183.849 262.907C183.849 262.907 185.286 262.362 187.45 261.248C189.673 260.08 192.773 258.361 196.498 256.285C200.543 253.985 204.721 251.669 207.996 249.873C211.779 247.995 214.022 246.902 214.022 246.902C214.022 246.902 209.065 251.457 201.421 259.629C197.952 263.533 194.12 268.266 189.991 273.756C185.413 279.527 180.721 286.059 175.898 293.374C171.681 300.577 168.798 307.448 167.287 313.817C166.795 317.032 166.445 320.185 166.208 323.345C166.09 326.327 166.106 329.362 166.148 332.553C166.293 335.755 166.219 339.095 165.07 342.849C163.983 346.52 162.872 350.327 161.806 354.143C161.002 357.536 160.41 360.712 159.926 363.687C159.504 366.551 159.083 369.289 158.692 371.999C158.264 374.657 157.837 377.285 157.414 379.605C156.976 381.793 156.551 383.82 156.141 385.786C155.728 387.711 155.33 389.672 154.943 391.627C154.57 393.548 154.207 395.368 153.866 397.108C153.529 398.762 153.21 400.297 152.866 401.871C152.421 403.629 151.852 405.58 151.308 407.465C150.368 411.057 149.781 414.371 149.271 417.384C148.794 420.314 148.395 422.973 148.054 425.257C147.694 427.591 147.38 429.585 147.13 431.215C146.681 434.621 146.421 436.674 146.421 436.674C146.421 436.674 145.311 436.783 143.677 436.94C142.896 436.877 142.076 436.789 141.262 436.685C140.466 436.587 139.625 436.452 138.787 436.289C137.959 436.12 137.144 435.947 136.376 435.85C135.519 435.932 134.656 436.128 133.927 436.28C132.483 436.521 131.533 436.615 131.533 436.615C131.533 436.615 131.175 434.902 130.593 431.849C130.312 430.284 129.995 428.218 129.653 425.618C129.171 423.08 127.889 420.599 126.509 417.826C125.161 414.968 123.874 411.611 122.494 408.042C121.185 404.54 119.834 400.847 118.424 396.984C117.7 395.012 116.991 392.881 116.337 390.683C115.742 388.431 115.201 386.045 114.708 383.483C114.273 380.799 113.895 378.02 113.545 375.243C113.22 372.427 112.914 369.56 112.639 366.666C112.382 363.75 112.161 360.819 111.957 357.866C111.781 355.041 111.629 352.205 111.505 349.37C111.429 346.515 111.557 343.459 111.719 340.513C111.88 337.596 112.052 334.702 112.284 331.852C112.864 326.225 113.25 320.6 114.156 314.441C115.455 307.97 117.033 301.879 118.607 296.515C119.992 291.388 121.277 286.765 122.446 282.612C124.042 278.509 125.656 274.83 127.014 271.808C129.8 265.705 131.623 262.089 131.623 262.089C131.623 262.089 132.607 261.979 134.066 261.773C135.469 261.536 137.417 261.173 139.431 260.766C141.514 260.329 143.659 259.809 145.253 259.531C146.801 259.495 147.856 259.452 147.856 259.452C147.856 259.452 146.255 262.427 143.861 267.48C141.801 272.595 139.222 279.905 136.549 288.373C135.178 292.447 133.755 296.851 132.395 301.493C131.235 306.145 129.901 311.166 128.348 316.451C127.558 321.025 127.342 325.571 127.314 330.132C127.376 334.612 127.469 339.163 127.572 343.736C127.749 348.222 128.127 352.564 128.607 356.722C129.181 360.811 129.94 364.777 130.713 368.555C131.5 372.299 132.321 375.834 133.207 379.102C134.137 382.281 135.088 385.061 136.009 387.644C137.419 392.972 137.409 397.958 137.415 401.416C137.473 404.866 137.531 406.85 137.531 406.85L138.391 406.934C138.391 406.934 138.673 405.122 139.203 401.932C139.475 400.32 139.806 398.333 140.185 396.074C140.559 393.803 141.158 391.28 141.9 388.416C142.73 385.401 143.691 382.079 144.774 378.493C145.906 374.83 147.166 370.916 148.144 367.027C148.596 363.564 149.058 359.929 149.43 356.348C149.586 353.195 149.873 349.832 150.219 346.318C150.613 342.657 151.055 338.85 151.569 334.954C152.189 330.916 152.9 326.865 153.509 322.579C154.215 317.749 155.125 312.844 156.277 307.916C158.323 302.067 160.58 296.796 163.288 291.885C166.298 287.443 169.213 283.39 171.478 279.985C173.914 276.687 176.196 273.609 177.984 270.999C181.567 265.887 183.849 262.907 183.849 262.907ZM218.189 244.911C218.189 244.911 219.875 244.076 222.96 242.517C226.091 240.966 230.39 239.183 235.728 237.252C238.236 236.574 240.776 236.16 243.489 235.727C246.064 235.521 248.684 235.352 251.291 235.188C253.929 235.22 256.418 235.233 259.034 235.247C261.835 235.208 264.763 235.169 267.694 235.171C270.625 235.395 273.605 235.668 276.751 236.064C280.092 236.43 283.739 236.761 287.43 237.127C291.495 237.679 295.436 238.425 299.109 239.261C302.808 240.126 306.31 240.953 309.539 241.731C315.656 243.338 320.801 244.73 324.295 245.699C327.663 246.668 329.587 247.207 329.587 247.207C329.587 247.207 325.355 247.454 319.035 247.903C312.454 248.395 303.676 249.222 295.08 250.498C287.003 252.609 280.429 255.317 276.33 257.78C272.607 260.818 270.499 263.08 270.499 263.08C270.499 263.08 268.38 263.435 265.066 263.964C261.975 264.521 257.881 265.307 253.587 266.432C249.873 267.192 246.234 267.933 243.869 268.396C241.274 268.749 239.54 268.964 239.54 268.964C239.54 268.964 237.915 271.182 235.56 275.017C233.263 278.952 230.056 284.667 225.737 291.86C222.462 295.316 219.22 299.036 215.907 303.011C212.721 307.084 209.557 311.525 206.694 316.21C204.473 320.796 202.635 325.591 201.009 330.614C199.962 335.301 199.217 339.436 198.599 343.893C198.364 347.82 198.432 351.516 198.588 354.838C199.145 357.93 199.705 360.964 200.317 363.864C201.049 366.684 201.956 369.427 202.805 371.943C203.614 374.366 204.414 376.417 205.201 378.249C206.994 381.581 208.415 383.904 209.377 385.465C210.393 387.086 210.976 388.003 210.976 388.003C210.976 388.003 212.661 387.294 215.65 386.502C218.716 385.761 222.667 384.521 226.013 382.917C228.743 381.025 231.277 378.94 233.13 377.306C234.956 375.642 236.209 374.647 236.209 374.647C236.209 374.647 237.867 375.917 240.068 377.885C242.142 379.754 244.984 382.265 247.727 384.707C250.857 386.98 254.37 389.238 256.957 390.939C259.67 392.613 261.566 393.723 261.566 393.723C261.566 393.723 260.096 394.352 257.499 395.433C254.553 396.387 250.011 397.55 244.088 398.621C241.28 399.124 238.378 399.667 235.367 400.217C232.386 400.74 229.398 401.629 226.369 402.647C223.231 403.671 219.876 404.901 216.341 406.294C212.853 407.667 209.462 409.039 206.461 410.282C203.679 411.513 201.041 412.82 198.622 414.214C196.431 415.744 193.975 417.656 191.565 419.422C189.32 421.116 187.308 422.736 185.484 424.148C183.758 425.308 182.288 426.286 181.071 427.139C178.711 429.176 176.754 430.828 175.302 432.007C173.691 433.173 172.791 433.636 172.791 433.636C172.791 433.636 172.605 432.573 172.316 430.955C172.012 429.302 171.606 427.066 171.248 424.654C170.881 422.22 170.513 419.785 170.248 417.934C169.996 416.146 169.827 414.866 169.827 414.866C169.827 414.866 170.945 414.391 172.649 413.534C174.205 412.658 176.212 411.249 178.082 409.399C180.192 407.555 182.572 405.564 184.335 404.012C186.173 402.789 187.44 401.955 187.44 401.955C187.44 401.955 187.151 401.007 186.632 399.309C186.121 397.537 185.557 394.811 184.966 391.163C184.674 389.253 184.378 387.108 184.239 384.685C183.96 382.295 183.671 379.784 183.384 377.245C183.205 374.476 183.207 371.098 182.98 367.709C182.781 364.098 182.647 360.25 182.561 356.226C182.899 351.864 183.579 346.975 184.35 342.103C185.161 337.129 186.107 332.18 187.585 327.138C189.421 321.925 191.508 316.84 193.833 311.915C196.553 307.446 198.391 303.642 199.469 300.268C202.724 293.164 206.756 286.655 209.791 282.076C212.724 277.681 214.342 275.257 214.342 275.257C214.342 275.257 212.382 276.198 209.251 277.749C205.969 279.465 201.539 281.779 196.822 284.554C192.181 287.436 187.684 290.394 184.507 292.831C181.591 295.097 179.745 296.491 179.745 296.491C179.745 296.491 181.7 292.984 184.766 287.777C188.053 282.53 193.014 275.754 197.731 269.407C201.847 263.28 206.85 257.142 210.906 252.41C215.173 247.906 218.189 244.911 218.189 244.911ZM394.031 350.046C394.031 350.046 392.261 350.625 388.841 351.452C387.132 351.851 385.042 352.402 382.838 353.073C380.651 353.751 378.157 354.493 375.539 355.304C373.057 356.041 370.415 356.764 367.381 357.421C364.331 358.072 361.015 358.755 357.348 359.592C353.519 360.472 349.14 361.467 344.521 362.455C340.081 363.406 335.572 364.36 331.542 365.356C327.988 366.45 324.446 367.539 320.717 368.808C316.749 370.042 312.787 371.287 310.136 372.628C307.446 373.944 304.668 375.215 302.086 376.554C299.482 377.875 297.02 379.106 294.74 380.242C292.229 381.327 289.427 382.26 286.998 383.086C284.654 383.916 282.665 384.632 281.059 385.237C277.9 386.438 276.091 387.118 276.091 387.118C276.091 387.118 272.657 385.648 267.433 383.021C265.207 381.665 262.552 379.965 259.528 377.967C256.452 375.783 253.16 373.203 249.952 370.463C246.79 367.827 243.708 365.059 240.262 362.157C236.783 359.116 234.138 354.635 232.007 349.986C231.391 347.59 230.861 345.198 230.412 342.799C230.076 340.406 229.828 337.989 229.663 335.633C229.607 333.272 229.65 330.853 229.839 328.286C230.452 325.827 231.403 323.248 232.465 320.635C233.683 317.966 235.185 315.147 236.837 312.289C238.655 309.428 240.86 306.398 243.382 303.23C246.338 300.067 249.382 297.074 252.384 294.142C255.281 291.228 258.341 288.271 261.716 285.203C268.904 279.212 275.119 273.576 280.641 268.495C286.683 264.317 292.314 261.016 297.97 258.57C305.818 257.117 313.545 256.151 320.35 255.407C327.045 254.794 332.89 254.47 337.638 254.318C347.865 254.505 354.48 254.89 354.48 254.89C354.48 254.89 357.465 255.845 362.671 257.6C365.262 258.546 368.472 259.695 372.338 261.102C375.917 262.424 379.992 264.019 384.217 265.575C388.554 267.195 394.21 269.088 400.315 271.05C405.588 272.608 410.971 274.035 416.777 274.802C423.166 274.798 429.721 274.023 436.896 272.754C444.215 270.92 451.908 268.601 459.502 266.311C468.367 263.703 477.567 260.459 485.871 256.505C494.286 252.168 505.246 248.992 517.081 245.935C528.984 242.904 539.13 240.098 550.284 237.27C560.612 233.798 568.604 230.79 575.192 227.922C581.37 224.884 586.226 222.173 590.108 219.596C593.687 217.026 597.155 214.81 599.852 212.905C604.176 209.297 606.469 207.233 606.469 207.233C606.469 207.233 604.098 210.489 600.07 215.349C594.927 220.307 587.867 226.688 580.009 232.554C570.326 237.949 558.729 242.604 547.923 245.461C536.279 249.02 528.737 251.525 528.737 251.525C528.737 251.525 523.706 252.847 515.381 254.967C507.277 256.825 497.394 260.548 487.333 266.387C481.735 269.06 475.287 271.769 468.978 274.222C463.018 276.355 456.969 278.318 450.757 280.323C444.177 282.379 437.458 284.244 430.224 285.986C423.583 286.979 417.531 287.338 410.983 287.3C404.525 287.209 397.849 286.655 392.219 285.811C387.224 284.633 382.322 283.22 378.342 281.905C374.064 280.483 370.216 279.152 366.633 277.915C363.117 276.704 359.981 275.662 357.08 274.643C350.738 272.938 345.701 271.695 342.51 270.844C339.529 270.027 337.863 269.57 337.863 269.57C337.863 269.57 333.7 269.814 327.216 270.335C321.283 271.255 314.062 273.089 306.491 275.592C298.532 278.739 291.464 282.166 286.149 284.882C281.479 287.86 278.449 289.897 278.449 289.897C278.449 289.897 284.202 288.692 292.718 287.618C296.944 287.262 301.878 287.057 307.523 287.169C310.598 287.275 313.95 287.442 317.598 287.743C321.21 288.089 324.947 288.561 328.833 289.15C332.979 289.792 337.329 290.484 341.893 291.348C345.92 291.972 349.616 292.351 353.099 292.655C360.409 293.546 367.65 294.69 373.888 295.743C389.504 297.883 401.48 298.24 401.48 298.24C401.48 298.24 397.421 298.787 391.522 299.624C385.756 300.095 378.723 300.925 373.807 302.225C369.076 303.499 364.021 304.608 360.341 305.702C356.986 307.156 354.414 308.197 354.414 308.197C354.414 308.197 345.394 308.153 332.962 307.87C326.4 307.224 319.454 306.593 312.227 306.406C308.477 306.414 304.809 306.483 301.651 306.791C298.851 307.248 296.227 307.726 293.717 308.21C291.27 308.709 288.868 309.215 286.41 309.816C284.008 310.449 281.659 311.044 279.397 311.615C274.884 312.752 270.668 313.927 267.021 315.033C260.576 317.365 256.361 318.958 256.361 318.958C256.361 318.958 255.598 321.106 254.646 324.257C253.894 327.419 253.829 331.927 254.704 336.414C255.976 341.076 257.669 345.903 258.859 349.165C260.807 351.801 262.359 353.466 262.359 353.466C262.359 353.466 263.375 352.98 265.21 352.135C267.097 351.282 270.068 350.066 273.951 348.576C275.742 347.821 277.68 347.084 279.798 346.311C281.961 345.546 284.406 344.756 287.032 343.9C289.853 343.043 292.787 342.094 295.87 341.136C299.037 340.337 302.032 339.654 304.876 339.01C307.582 338.37 310.192 337.829 312.498 337.294C314.866 336.775 317.239 336.267 319.626 335.725C322.101 335.13 324.921 334.622 327.919 334.204C330.674 333.738 333.353 333.292 336.551 333.009C342.969 332.434 348.123 331.742 351.704 331.222C355.322 330.686 357.49 330.379 357.49 330.379C357.49 330.379 358.522 331.686 360.309 333.569C362.064 335.411 365.229 337.989 369.581 340.314C374.379 342.638 380.709 345.018 385.637 346.937C390.822 348.868 394.031 350.046 394.031 350.046ZM618.606 264.607C618.606 264.607 619.302 263.647 620.53 261.923C621.882 260.103 624.444 257.155 627.31 253.626C628.676 251.773 630.14 249.569 631.682 247.192C633.512 244.773 635.631 242.185 637.81 239.446C640.562 236.232 643.774 232.539 646.913 228.389C649.905 223.842 652.823 219.091 655.504 214.248C658.012 209.327 659.452 204.581 660.66 199.559C661.871 194.48 662.788 189.432 662.658 184.158C661.433 178.903 659.202 173.962 655.969 168.678C652.933 163.141 650.242 157.788 647.797 152.773C645.022 142.349 642.944 133.42 641.004 126.594C639.014 119.524 637.726 115.399 637.726 115.399L637.641 117.055C637.641 117.055 638.819 122.108 640.803 131.078C641.711 135.355 642.555 140.219 643.199 145.645C644.276 150.978 646.865 157.214 649.725 163.847C652.639 170.317 655.08 176.533 656.415 182.647C656.095 189.22 654.429 195.81 652.78 202.28C649.877 209.104 645.255 216.178 639.886 223.076C633.781 229.822 626.182 236.44 618.402 243.122C610.097 249.686 601.784 255.5 594.357 260.661C585.775 264.583 575.561 267.042 566.829 268.964C559.116 270.887 552.944 273.365 547.712 275.472C543.077 277.444 539.673 279.17 536.717 280.994C533.966 282.839 531.61 284.47 529.561 285.911C527.893 287.52 526.799 288.975 525.953 290.168C524.387 292.682 523.603 294.141 523.603 294.141C523.603 294.141 519.175 297.195 510.004 302.77C504.994 305.799 499.212 309.264 493.235 312.73C487.859 315.849 482.845 318.838 477.849 321.484C472.899 324.013 468.535 326.285 464.888 328.285C461.197 330.277 457.807 332.066 455 333.56C449.273 336.609 444.913 338.349 444.913 338.349C444.913 338.349 441.419 337.38 435.626 335.366C433.333 334.303 430.9 333.079 428.557 331.648C426.495 330.22 423.699 328.708 421.089 327.017C419.697 325.142 418.845 323.101 418.724 321.005C419.596 319.075 421.088 317.096 422.555 314.835C424.117 313.748 425.787 312.654 428.054 311.551C430.261 310.25 432.511 308.917 435.163 307.547C438.34 306.004 442.058 303.945 445.809 301.676C449.884 299.251 454.89 296.754 459.706 294.27C464.343 291.823 468.942 289.323 473.837 286.637C478.24 284.069 481.948 281.637 485.837 279.043C490.367 276.098 494.351 273.113 498.004 270.301C501.768 267.356 506.03 264.501 511.073 261.96C524.117 257.328 537.416 252.193 549.35 248.214C561.779 245.205 571.877 241.205 579.195 237.041C585.667 232.409 591.042 227.63 595.92 223.375C600.167 218.823 603.472 214.991 605.927 211.768C610.421 204.974 612.641 200.863 612.641 200.863C612.641 200.863 614.934 198.13 617.882 193.769C620.03 189.62 621.955 184.452 623.264 178.13C623.658 170.8 623.349 164.32 623.156 159.478C622.724 154.63 622.195 151.317 622.195 151.317C622.195 151.317 623.499 154.807 625.352 160.639C627.19 166.338 629.414 174.324 630.949 183.35C631.534 188.006 631.828 192.985 630.726 198.184C628.296 203.378 624.938 208.782 620.865 214.303C616.375 219.701 611.499 225.141 606.418 230.336C601.454 235.354 596.148 240.132 590.636 244.916C584.352 249.465 577.79 252.936 569.046 255.212C560.138 257.435 551.472 259.538 544.634 262.153C538.108 264.589 531.756 266.782 525.656 269.395C519.91 272.146 515.16 274.908 511.548 277.911C504.415 283.934 499.696 288.553 496.306 291.682C491.79 295.011 489.812 296.645 489.812 296.645L494.695 294.41C494.695 294.41 498.85 291.532 504.202 286.86C507.19 284.535 510.867 281.712 515.239 278.278C520.311 275.166 526.914 272.11 534.876 269.673C542.457 267.417 550.425 264.768 560.402 262.12C570.922 259.82 582.315 257.25 591.515 252.346C599.003 246.53 607.114 240.414 614.768 233.73C623.713 226.426 631.518 218.239 637.77 210.075C642.456 202.094 643.798 194.349 644.888 186.378C644.521 178.906 642.769 171.104 640.012 162.793C636.411 153.764 633.558 144.532 631.861 135.199C629.984 125.582 627.842 116.444 625.707 108.182C623.742 100.404 621.993 94.0801 620.293 88.5026C618.59 83.0797 617.156 78.4605 615.893 74.6172C613.209 66.6651 611.829 62.4265 611.829 62.4265C611.829 62.4265 611.635 58.7297 611.301 53.7548C611.147 51.3939 611.077 48.9687 611.143 46.6649C611.198 44.5896 611.267 42.5779 611.324 40.6973C611.554 39.2149 611.854 37.8277 612.135 36.5884C612.39 35.4164 612.601 34.4311 612.773 33.6441C613.015 31.9333 613.586 31.4187 613.586 31.4187C613.586 31.4187 615.097 34.1068 617.555 38.8643C619.91 43.9601 623.657 51.6005 627.883 60.8454C629.878 65.5964 631.926 70.7565 634.148 76.2176C636.274 81.6508 638.252 87.1624 640.24 92.8233C642.406 98.602 644.471 104.536 646.228 110.242C648.102 116.567 650.386 123.285 652.361 129.426C654.166 135.404 655.823 141.391 657.307 147.175C659.21 152.483 662.356 157.791 665.548 162.632C668.743 167.192 671.574 171.494 674.066 175.371C675.922 179.262 676.867 183.049 676.986 186.416C676.248 192.99 675.434 198.37 675.012 201.583C674.411 204.707 673.995 206.437 673.995 206.437L675.55 204.599C675.55 204.599 676.452 202.069 677.85 197.578C678.498 195.327 679.179 192.545 679.909 189.142C680.35 185.46 680.271 181.294 679.19 176.59C677.056 172.096 674.369 167.452 671.24 162.374C668.011 157.13 665.438 151.726 663.289 146.177C662.252 140.616 661.105 134.294 659.73 127.835C658.746 121.79 657.601 115.76 656.206 109.924C654.556 103.696 652.804 97.332 650.85 91.0145C648.568 84.4913 646.809 78.2696 644.931 72.2537C642.836 66.4442 640.667 60.9458 638.471 55.6692C636.143 50.3802 633.728 45.436 631.445 40.9507C629.469 36.8476 627.653 33.3024 626.024 30.3449C624.382 27.4211 623.052 24.8912 621.933 22.8129C619.654 18.6886 618.337 16.3482 618.337 16.3482C618.337 16.3482 618.263 15.125 618.416 13.8161C618.676 12.7532 619.562 11.7795 621.586 12.0665C623.805 12.5468 625.848 12.9091 627.098 12.8645C628.305 12.6573 629.07 12.3645 629.07 12.3645C629.07 12.3645 629.846 14.2019 631.217 17.4954C631.907 19.1052 632.763 21.0612 633.757 23.3335C634.799 25.6826 636.036 28.3509 637.555 31.6634C639.377 35.7643 641.72 40.6419 644.472 46.4851C645.787 49.4264 647.15 52.542 648.59 55.9307C649.999 59.2776 651.372 62.6398 652.747 66.0709C654.093 69.5291 655.424 73.0495 656.697 76.567C658.034 80.1964 659.636 84.017 661.184 87.8748C662.636 91.7049 664.002 95.5591 665.103 99.417C666.264 103.249 667.498 107.091 668.697 110.948C669.821 114.824 670.858 118.599 671.787 122.35C672.603 126.096 673.328 130.147 673.959 134.141C674.817 138.175 675.582 142.124 676.407 146.02C677.955 149.78 679.592 153.236 681.15 156.573C682.867 159.827 684.913 163.007 686.846 166.18C688.509 169.248 690.02 172.159 691.209 174.877C692.606 180.461 693.29 185.758 693.664 190.855C693.616 195.913 693.108 200.364 692.217 204.103C690.977 207.646 689.532 210.818 688.193 213.371C685.702 218.396 684.544 221.107 684.544 221.107C684.544 221.107 681.923 223.538 677.581 227.391C674.97 229.622 671.748 232.176 667.985 234.771C663.992 237.285 659.639 239.999 655.59 242.705C651.322 245.452 646.92 248.117 642.372 250.735C637.801 253.46 633.804 255.935 630.343 258.007C623.54 261.946 618.606 264.607 618.606 264.607ZM690.485 25.7964C690.485 25.7964 689.835 26.4158 688.86 27.3447C687.916 28.3439 686.978 29.9961 686.151 31.2648C685.258 32.3811 684.302 33.3855 683.507 34.0546C682.633 34.6739 682.045 35.0845 682.045 35.0845C681.035 32.01 680.376 30.1213 680.115 29.5239C678.893 26.4442 677.321 24.2854 675.348 23.3484C674.339 22.8272 673.248 22.6624 672.084 22.8088C670.905 22.9201 669.684 23.2869 668.366 23.975C666.692 24.5818 665.077 25.2604 663.567 26.1162C661.952 27.018 660.638 28.0956 659.75 29.5443C658.876 30.9593 658.466 32.4783 658.66 34.2916C658.827 36.0463 659.501 37.9701 660.651 40.1186C662.131 42.9597 664.227 45.0709 666.896 46.3871C668.14 47.0291 669.409 47.5065 670.73 47.7517C672.072 48.0438 673.543 48.2795 675.103 48.434C676.39 48.4714 677.667 48.4567 679.018 48.4516C680.297 48.4084 681.578 48.3367 682.873 48.2027C684.2 48.2079 685.431 48.2137 686.568 48.2606C687.705 48.3074 688.726 48.377 689.653 48.4875C690.69 48.5922 691.833 48.9714 693.001 49.6325C694.131 50.2686 695.267 51.2086 696.43 52.4304C697.55 53.587 698.607 55.0782 699.635 56.9171C700.644 58.7779 701.592 60.9448 702.688 63.5772C703.954 66.5676 705.046 69.509 705.955 72.0975C706.865 74.5601 707.62 77.0205 708.264 79.3205C708.893 81.6828 709.377 84.0663 709.707 86.6709C710.063 89.3341 710.332 92.0215 710.417 94.6078C710.532 97.2644 710.544 99.9385 710.641 102.617C710.707 104.012 711.114 106.122 711.494 108.105C711.985 110.249 712.525 112.44 713.015 114.612C713.481 116.794 713.911 119.021 714.277 121.261C714.657 123.564 715 125.912 715.268 128.279C715.516 130.696 715.629 133.186 715.669 135.639C715.632 138.041 715.449 140.368 715.164 142.586C714.943 144.315 714.816 145.906 714.632 147.367C714.534 148.834 714.43 150.191 714.367 151.419C713.82 154.058 713.112 156.364 712.436 158.487C711.853 160.696 711.133 162.462 710.36 163.693C709.557 164.952 708.63 165.832 707.615 166.318C706.65 166.824 705.619 166.828 704.483 166.209C703.35 165.532 702.158 164.435 700.879 162.915C699.608 161.35 698.393 159.273 696.663 156.722C694.742 154.213 692.747 151.249 690.722 147.864C689.618 145.724 688.648 142.995 687.511 139.599C686.266 136.083 684.738 132.049 682.843 127.686C682.843 127.686 683.035 126.179 683.348 123.991C683.668 121.883 684.043 119.361 684.458 116.96C684.916 114.402 685.389 111.879 685.758 110.043C685.837 108.054 685.764 106.677 685.764 106.677C688.612 113.218 690.182 116.996 690.851 118.559C692.267 121.094 693.58 122.947 694.709 124.156C695.845 125.348 696.9 125.751 697.79 125.361C698.62 124.929 699.225 123.729 699.423 121.661C699.67 119.739 700.038 117.582 700.132 114.639C700.15 112.83 700.172 111.063 700.189 109.186C700.257 107.397 700.246 105.616 700.159 103.854C699.984 100.33 699.566 96.4385 698.935 92.5419C698.676 89.6833 698.443 87.5244 697.97 85.3591C697.49 83.2105 696.747 80.9683 695.697 78.6645C694.686 75.9391 693.33 74.1464 691.543 73.2533C690.605 72.7987 689.614 72.4787 688.595 72.3521C687.566 72.2306 686.53 72.3206 685.478 72.6273C684.597 73.292 683.689 74.024 682.949 75.1711C682.208 76.4441 681.354 77.5854 680.44 78.7808C679.609 79.6885 678.705 80.4608 677.763 81.1797C676.842 81.9454 675.844 82.6613 674.848 83.2228C674.006 83.5632 673.051 83.3253 671.884 82.5098C670.707 81.6994 669.174 80.2067 667.403 78.1351C665.602 76.1878 663.75 73.4536 661.76 70.054C659.724 66.6749 657.522 62.7262 655.157 58.2769C652.699 53.7426 650.401 49.3196 648.253 44.9844C646.159 40.8352 644.397 37.0008 643.331 34.118C642.365 31.3033 641.483 28.5215 640.865 25.9593C640.295 23.4455 640.09 20.9675 640.38 19.1103C640.827 17.3242 641.706 15.6976 643.034 14.3631C644.395 13.0417 645.998 11.8244 647.815 10.6524C648.778 10.0778 649.749 9.55507 650.746 9.09096C651.754 8.65028 652.805 8.2462 653.883 7.87213C654.874 7.42486 655.908 7.01421 656.954 6.59842C657.973 6.15261 659.111 5.72439 660.294 5.33275C662.095 4.47481 663.718 3.65345 665.22 2.94046C666.676 2.21941 668.012 1.50935 669.31 0.997658C670.653 0.591384 671.971 0.349819 673.35 0.248807C674.763 0.160972 676.134 0.202709 677.465 0.499927C678.797 0.865957 680.01 1.43768 681.146 2.28027C682.237 3.1148 683.229 4.20189 684.128 5.5247C685.038 6.87093 685.933 8.4053 686.723 10.0831C687.499 11.6973 688.162 13.5003 688.689 15.5025C688.949 16.5749 689.236 17.998 689.507 19.7637C689.798 21.4503 690.12 23.4305 690.485 25.7964Z" fill="url(#paint0_linear_312_295)"/>
<defs>
<linearGradient id="paint0_linear_312_295" x1="342.873" y1="160.515" x2="230.957" y2="393.192" gradientUnits="userSpaceOnUse">
<stop stop-color="#A9D137"/>
<stop offset="1" stop-color="#43D137"/>
</linearGradient>
</defs>
</svg>
