<svg width="342" height="304" fill="none" xmlns="http://www.w3.org/2000/svg"><path d="M1 101.293c3.21 26.871 6.206 54.146 17.104 79.227 3.928 9.04 8.995 19.533 17.138 25.64 8.87 6.652 13.09-2.092 15.162-10.142 3.507-13.628 5.455-28.625 3.481-42.643-2.86-20.311-11.028-40.068-19.58-58.542-3.911-8.447-8.36-16.585-12.52-24.903-1.771-3.544-1.539-1.152-1.372 1.573 2.938 47.843 15.515 95.262 31.33 140.28 7.807 22.222 16.768 43.921 27.815 64.734 4.298 8.099 17.018 32.331 14.024 23.664-2.192-6.346-8.2-12.397-12.451-17.271-12.88-14.769-26.942-28.576-41.036-42.174-4.562-4.402-10.72-8.882-14.025-14.46-1.709-2.883.116-3.764 2.042-5.69m46.391-81.939c-3.868-3.625-2.382 7.117-2.343 8.569.24 9.047.773 18.429 3.548 27.112.52 1.627 2.659 8.227 5.389 8 3.209-.268 5.129-11.779 5.523-13.69 2.178-10.569 1.978-21.736 1.037-32.434-.125-1.423-.314-11.243-2.443-12.485-.302-.176-.403.594-.469.937-.66 3.43-.53 7.159-.569 10.611-.14 12.811-.084 25.892 3.715 38.258 1.819 5.917 5.164 15.197 11.782 17.439 5.658 1.916 8.741-7.277 9.975-10.946 8.048-23.929 5.345-51.972-2.209-75.579-.435-1.358-.499-2.975-1.473-4.016-1.873-2.002-.665 5.459-.636 8.2.176 16.632 2.211 33.098 5.255 49.438 2.96 15.887 6.341 31.987 12.485 46.994.461 1.125 1.63 3.958 2.444 5.289.998 1.634.664-.788.803-1.205" stroke="#CBCBCB" stroke-width="2" stroke-linecap="round"/><path d="M88.962 92.256c-.796-1.868-2.245-4.15-2.61-6.16-.139-.76.81 1.322 1.272 1.942 3.518 4.727 7.732 8.865 12.05 12.853 11.069 10.228 23.241 18.794 35.814 27.045 9.063 5.948 20.593 11.599 27.681 20.05 3.455 4.119 4.009 9.076 2.443 14.125-3.819 12.318-13.937 22.768-21.355 32.969-6.349 8.734-13.575 18.1-16.434 28.719-.727 2.7-1.039 5.048-.301 7.632" stroke="#CBCBCB" stroke-width="2" stroke-linecap="round"/><path d="M133.547 230.226c13.919-19.685 28.858-39.18 38.894-61.254 6.74-14.824 11.18-30.668 13.891-46.692.957-5.662 2.107-22.866 1.372-17.171-3.27 25.344-3.941 51.337-4.485 76.85-.315 14.733-.754 29.926 2.41 44.417.107.491 1.341 9.058 2.142 5.054" stroke="#CBCBCB" stroke-width="2" stroke-linecap="round"/><path d="M155.84 195.884c8.172-4.419 15.325-6.24 24.3-8.134 3.328-.702 8.468-1.014 10.644-3.916m1.204 4.82c6.945-2.619 7.41-2.159 13.791-8.234 9.633-9.172 18.638-20.851 23.195-33.472 3.742-10.362 2.508-23.564-1.573-33.672-1.039-2.575-4.665-11.871-9.071-10.109-3.687 1.475-5.93 6.937-7.263 10.176-3.262 7.924-5.105 16.516-6.661 24.903-4.695 25.306-13.209 71.785 18.912 83.31 10.372 3.722 21.341 1.177 29.388-6.326 12.493-11.649 10.314-29.209 10.978-44.651m-17.471-50.006c5.713 16.329 11.22 32.602 18.744 48.199 2.418 5.011 4.642 10.52 8.87 14.325 5.608 5.048 13.179-20.222 13.824-22.359 5.345-17.714 8.252-36.281 11.715-54.424 4.592-24.064 8.079-49.186 17.572-71.93 4.409-10.564 9.594-22.867 17.941-31.03 2.186-2.136 3.051-2.793 5.925-2.074" stroke="#CBCBCB" stroke-width="2" stroke-linecap="round"/></svg>