<svg width="716" height="437" fill="none" xmlns="http://www.w3.org/2000/svg"><path d="M29.435 314.945s-.601-.226-1.597-.558c-1.24.292-2.88.689-4.745 1.309-1.84.609-3.615 1.177-4.903 1.614-1.268.388-2.107.671-2.107.671s-.757 3.15-1.726 7.76a314.27 314.27 0 00-1.24 8.204c-.391 3.06-.87 6.59-1.378 10.245-.38 3.851-.646 7.902-.844 11.659a322.096 322.096 0 00-.057 10.714c.176 6.398.366 10.724.366 10.724s-.606.977-1.51 2.419c-.88 1.432-2.041 3.307-3.177 5.144a628.823 628.823 0 01-2.816 4.441 429.698 429.698 0 00-1.228 1.849s-.378-3.128-.97-8.562c-.213-2.753-.383-6.14-.546-9.99a528.232 528.232 0 01-.282-13.147c.038-4.761.148-9.805.363-15.118.32-5.36.793-10.883 1.313-16.329.33-2.434.703-4.899 1.121-7.357.427-2.405.853-4.782 1.382-7.176a353.108 353.108 0 011.822-7.286c.73-2.413 1.515-4.863 2.333-7.203.762-2.245 1.54-4.455 2.344-6.635a157.779 157.779 0 012.687-6.618 178.67 178.67 0 013.04-6.576 380.892 380.892 0 013.845-7.223c2.589-4.607 5.081-8.893 7.138-12.486a306.339 306.339 0 016-9.505 341.697 341.697 0 015.263-7.619 171.47 171.47 0 014.4-5.86c2.866-3.528 4.583-5.536 4.583-5.536s2.429-.699 6.152-1.728c1.88-.516 4.128-1.122 6.19-1.257 1.956.038 3.863.347 5.476.939.75 1.556 1.734 2.814 2.54 4.15a20.912 20.912 0 002.556 3.096c1.63 1.813 2.57 3.132 2.57 3.132 1.004 1.403 1.812 2.835 2.618 4.102a11.669 11.669 0 012.137 3.865c.245 1.707.24 3.579.016 5.714-.276 2.27-.503 4.463-.849 6.735a86.179 86.179 0 01-1.305 6.906 81.377 81.377 0 01-1.883 6.922 135.533 135.533 0 01-2.614 7.549 98.578 98.578 0 01-3.252 7.814 157.401 157.401 0 01-4.429 8.887c-1.412 2.641-2.816 5.013-4.204 7.072-1.388 2.058-2.666 3.859-3.81 5.295-1.127 1.442-2.242 2.53-3.224 3.155a41.534 41.534 0 01-3.112 2.17 25.273 25.273 0 01-2.828 1.573c-1.678.566-2.986.608-3.99.224l-1.463-.504s-.211 3.441-.487 8.488a269.38 269.38 0 00-.302 8.91c-.011 3.228.019 6.55.109 9.818.135 3.276.31 6.548.525 9.622a375.6 375.6 0 00.762 8.472c.603 4.983 1.101 8.449 1.101 8.449s-.886-.463-2.2-1.201a331.48 331.48 0 00-4.575-2.324c-1.54-.68-3.001-1.31-4.126-1.711l-1.827-.764s-.402-3.215-.923-8.011a338.93 338.93 0 01-.65-8.185 487.47 487.47 0 01-.358-9.11c-.086-3.004-.145-5.978-.13-8.72.042-2.74.125-5.358.269-7.709.36-4.693.646-7.804.646-7.804zm28.745-38.183c2.083-4.107 3.183-7.811 3.215-10.993.02-1.516-.215-2.948-.704-4.255-.466-1.289-1.303-2.374-2.473-3.23 0 0-.568-.436-1.324-1.081-.696-.729-1.899-1.723-3.106-2.73-1.093-1.127-2.257-2.097-3.421-2.397-1.204-.296-1.973-.49-1.973-.49s-1.487 2.088-3.682 5.267a395.863 395.863 0 00-3.702 5.764 494.52 494.52 0 00-4.204 6.946 272.12 272.12 0 00-3.997 7.163 202.632 202.632 0 00-3.72 7.028c-2.02 4.219-3.343 7.002-3.343 7.002s.94-.243 2.386-.639c1.474-.393 3.498-1 5.553-1.564 2.087-.62 3.44-.304 4.158.316a53.345 53.345 0 011.213 1.116 4.943 4.943 0 002.074 1.2 7.802 7.802 0 002.33.348c1.58.007 3.165-.547 4.737-1.612 1.579-.984 3.229-2.571 4.912-4.814 1.703-2.169 3.434-5.005 5.071-8.345zm44.032 157.708s-1.207-.589-3.166-1.685a52.332 52.332 0 01-3.14-2.268c-1.187-.988-2.543-2.335-4.007-3.927a112.86 112.86 0 01-4.497-5.749 122.32 122.32 0 01-4.502-7.324 328.054 328.054 0 01-4.237-8.822c-1.417-3.399-2.81-6.585-4.298-9.507-1.678-1.889-3.554-3.817-5.43-5.648-1.822-1.742-3.618-3.231-5.327-4.619-1.674-1.305-3.245-2.376-4.713-3.213-1.44-.835-2.774-1.619-4.006-2.489-1.206-.938-2.283-1.806-3.236-2.548a61.182 61.182 0 01-2.165-1.983c-1.218-1.03-1.961-1.612-1.961-1.612s.291-1.662.785-4.585c.264-1.47.59-3.245 1.003-5.267.446-2.01.963-4.273 1.517-6.707a340.428 340.428 0 011.664-7.649c.664-2.691 1.49-5.396 2.403-8.126.465-1.362.971-2.755 1.483-4.138.564-1.39 1.134-2.798 1.754-4.283.573-1.465 1.17-2.94 1.788-4.397.624-1.445 1.366-3.067 2.142-4.802.804-1.734 1.615-3.484 2.425-5.206.848-1.794 1.775-3.79 2.715-5.723.925-1.842 1.871-3.665 2.806-5.484.975-1.822 1.932-3.622 2.9-5.398 1.745-3.123 3.246-5.719 4.654-8.275 1.406-2.624 2.79-5.169 4.196-8.143 1.469-3.182 2.875-6.156 4.145-8.707 1.297-2.618 2.452-5.273 3.408-7.393 1.906-4.128 3.042-6.508 3.042-6.508s.516.095 1.604-.032c.58-.142 1.347-.366 2.188-.581.865-.225 1.823-.49 2.8-.681.964-.156 2.008-.292 2.939-.043.949.254 1.96.524 2.978.776 1.017.155 2.109.292 3.336.257 1.208-.012 2.194.199 3.075.427.936.163 1.934.242 2.957.283 1.08-.082 2.212-.27 3.294-.38 1.047.002 1.998.102 3.03.195a10.447 10.447 0 012.811.333c.81.162 1.566.264 2.273.317.719.049 1.379.025 2.069-.151 1.518-.357 2.4-.576 2.4-.576s-1.583 2.73-3.817 6.778c-2.193 4.015-5.018 9.326-7.287 14.379-1.899 5.101-3.64 10.147-4.829 13.904-1.125 3.744-1.867 6.259-1.867 6.259s-.394-.134-1.121-.361c-.713-.259-1.697-.722-2.946-1.153-.663-.016-1.431.11-2.248.189-.696.067-1.431.109-2.178.157a40.817 40.817 0 01-2.205-.096 17.487 17.487 0 01-2.242-.499 22.05 22.05 0 01-2.095-.994c-.645-.388-1.322-.692-1.955-.959a5.2 5.2 0 01-1.882-.698 11.78 11.78 0 01-1.491-1.176c-.873-.846-1.762-1.029-2.42-1.16-.7-.168-1.09-.291-1.09-.291s-.873 2.629-2.112 6.59a569.464 569.464 0 00-4.062 14.224 739.904 739.904 0 01-2.926 10.184c-.699 2.231-1.182 3.615-1.182 3.615s1.321 2.254 2.931 4.913c.87.904 1.889 1.574 2.993 2.249.57.281 1.168.564 1.78.813.607.208 1.206.686 1.814 1.117.645.36 1.322.566 1.964.886.646.359 1.281.695 1.908.979 1.269.477 2.484.895 3.54 1.172 2.33.698 3.95 1.119 3.95 1.119s-.251 2.008-.587 4.973a928.985 928.985 0 00-1.025 10.733 636.86 636.86 0 00-.713 10.206c-.137 2.683-.221 4.437-.221 4.437s-1.644-.984-3.79-2.571a44.266 44.266 0 00-3.513-2.607c-.62-.427-1.23-.899-1.865-1.361-.622-.496-1.257-1.181-1.894-1.935-.756-.771-1.571-1.615-2.4-2.648a71.468 71.468 0 01-2.379-3.396 151.982 151.982 0 01-3.834-7.073c-2.503-4.095-4.258-7.374-4.258-7.374s-.42.923-1.03 2.306a195.43 195.43 0 00-2.115 5.084c-.883 2.479-1.726 5.081-2.439 7.151l-1.14 3.485s.627.605 1.721 1.703c1.12 1.157 2.73 2.825 4.62 5.361.92 1.495 1.94 3.156 3.066 4.966 1.018 1.913 2.1 3.909 2.994 5.695a468.299 468.299 0 002.395 5.762 144.25 144.25 0 002.693 6.092 101.608 101.608 0 002.932 5.234c1.026 1.547 2.049 3.025 3.049 4.29a70.913 70.913 0 002.905 3.292c.96.948 1.828 1.657 2.615 2.149 1.762.583 3.318 1.172 4.425 1.79 1.104.578 1.751.909 1.751.909l-.005 3.686c.036 2.189.235 5.13.508 8.179.219 3.085.409 6.072.53 8.196.112 1.947.18 3.187.18 3.187zm81.637-171.563s1.437-.545 3.601-1.659c2.223-1.168 5.323-2.887 9.048-4.963 4.045-2.3 8.223-4.616 11.498-6.412 3.783-1.878 6.026-2.971 6.026-2.971s-4.957 4.555-12.601 12.727c-3.469 3.904-7.301 8.637-11.43 14.127-4.578 5.771-9.27 12.303-14.093 19.618-4.217 7.203-7.1 14.074-8.611 20.443a124.03 124.03 0 00-1.079 9.528c-.118 2.982-.102 6.017-.06 9.208.145 3.202.071 6.542-1.078 10.296a762.286 762.286 0 00-3.264 11.294 135.128 135.128 0 00-1.88 9.544c-.422 2.864-.843 5.602-1.234 8.312-.428 2.658-.855 5.286-1.278 7.606-.438 2.188-.863 4.215-1.273 6.181a376.25 376.25 0 00-1.198 5.841c-.373 1.921-.736 3.741-1.077 5.481a338.984 338.984 0 01-1 4.763c-.445 1.758-1.014 3.709-1.558 5.594-.94 3.592-1.527 6.906-2.037 9.919a590.01 590.01 0 00-1.217 7.873c-.36 2.334-.674 4.328-.924 5.958-.449 3.406-.709 5.459-.709 5.459s-1.11.109-2.744.266a52.69 52.69 0 01-2.415-.255 36.392 36.392 0 01-2.475-.396c-.828-.169-1.643-.342-2.411-.439-.857.082-1.72.278-2.449.43-1.444.241-2.394.335-2.394.335s-.358-1.713-.94-4.766c-.281-1.565-.598-3.631-.94-6.231-.482-2.538-1.764-5.019-3.144-7.792-1.348-2.858-2.635-6.215-4.015-9.784-1.309-3.502-2.66-7.195-4.07-11.058a106.776 106.776 0 01-2.087-6.301 108.135 108.135 0 01-1.629-7.2 237.58 237.58 0 01-1.163-8.24 428.11 428.11 0 01-.906-8.577 466.221 466.221 0 01-.682-8.8 459.975 459.975 0 01-.452-8.496c-.076-2.855.052-5.911.214-8.857.161-2.917.333-5.811.565-8.661.58-5.627.966-11.252 1.872-17.411 1.299-6.471 2.877-12.562 4.451-17.926 1.385-5.127 2.67-9.75 3.839-13.903 1.596-4.103 3.21-7.782 4.568-10.804 2.786-6.103 4.609-9.719 4.609-9.719s.984-.11 2.443-.316c1.403-.237 3.351-.6 5.365-1.007 2.083-.437 4.228-.957 5.822-1.235 1.548-.036 2.603-.079 2.603-.079s-1.601 2.975-3.995 8.028c-2.06 5.115-4.639 12.425-7.312 20.893a346.725 346.725 0 00-4.154 13.12 373.54 373.54 0 01-4.047 14.958c-.79 4.574-1.006 9.12-1.034 13.681.062 4.48.155 9.031.258 13.604.177 4.486.555 8.828 1.035 12.986.574 4.089 1.333 8.055 2.106 11.833.787 3.744 1.608 7.279 2.494 10.547.93 3.179 1.881 5.959 2.802 8.542 1.41 5.328 1.4 10.314 1.406 13.772.058 3.45.116 5.434.116 5.434l.86.084s.282-1.812.812-5.002c.272-1.612.603-3.599.982-5.858.374-2.271.973-4.794 1.715-7.658.83-3.015 1.791-6.337 2.874-9.923 1.132-3.663 2.392-7.577 3.37-11.466.452-3.463.914-7.098 1.286-10.679.156-3.153.443-6.516.789-10.03.394-3.661.836-7.468 1.35-11.364.62-4.038 1.331-8.089 1.94-12.375a176.75 176.75 0 012.768-14.663c2.046-5.849 4.303-11.12 7.011-16.031 3.01-4.442 5.925-8.495 8.19-11.9 2.436-3.298 4.718-6.376 6.506-8.986 3.583-5.112 5.865-8.092 5.865-8.092zm34.34-17.996s1.686-.835 4.771-2.394c3.131-1.551 7.43-3.334 12.768-5.265 2.508-.678 5.048-1.092 7.761-1.525 2.575-.206 5.195-.375 7.802-.539 2.638.032 5.127.045 7.743.059 2.801-.039 5.729-.078 8.66-.076 2.931.224 5.911.497 9.057.893 3.341.366 6.988.697 10.679 1.063a134.31 134.31 0 0111.679 2.134c3.699.865 7.201 1.692 10.43 2.47a1175.742 1175.742 0 0114.756 3.968c3.368.969 5.292 1.508 5.292 1.508s-4.232.247-10.552.696c-6.581.492-15.359 1.319-23.955 2.595-8.077 2.111-14.651 4.819-18.75 7.282-3.723 3.038-5.831 5.3-5.831 5.3s-2.119.355-5.433.884c-3.091.557-7.185 1.343-11.479 2.468-3.714.76-7.353 1.501-9.718 1.964-2.595.353-4.329.568-4.329.568s-1.625 2.218-3.98 6.053c-2.297 3.935-5.504 9.65-9.823 16.843-3.275 3.456-6.517 7.176-9.83 11.151-3.186 4.073-6.35 8.514-9.213 13.199-2.221 4.586-4.059 9.381-5.685 14.404a159.365 159.365 0 00-2.41 13.279c-.235 3.927-.167 7.623-.011 10.945.557 3.092 1.117 6.126 1.729 9.026.732 2.82 1.639 5.563 2.488 8.079a79.836 79.836 0 002.396 6.306 133.849 133.849 0 004.176 7.216c1.016 1.621 1.599 2.538 1.599 2.538s1.685-.709 4.674-1.501c3.066-.741 7.017-1.981 10.363-3.585 2.73-1.892 5.264-3.977 7.117-5.611 1.826-1.664 3.079-2.659 3.079-2.659s1.658 1.27 3.859 3.238c2.074 1.869 4.916 4.38 7.659 6.822 3.13 2.273 6.643 4.531 9.23 6.232a257.156 257.156 0 004.609 2.784s-1.47.629-4.067 1.71c-2.946.954-7.488 2.117-13.411 3.188-2.808.503-5.71 1.046-8.721 1.596-2.981.523-5.969 1.412-8.998 2.43-3.138 1.024-6.493 2.254-10.028 3.647a612.186 612.186 0 00-9.88 3.988c-2.782 1.231-5.42 2.538-7.839 3.932-2.191 1.53-4.647 3.442-7.057 5.208-2.245 1.694-4.257 3.314-6.081 4.726-1.726 1.16-3.196 2.138-4.413 2.991-2.36 2.037-4.317 3.689-5.769 4.868-1.611 1.166-2.511 1.629-2.511 1.629s-.186-1.063-.475-2.681c-.304-1.653-.71-3.889-1.068-6.301-.367-2.434-.735-4.869-1-6.72-.252-1.788-.421-3.068-.421-3.068s1.118-.475 2.822-1.332c1.556-.876 3.563-2.285 5.433-4.135 2.11-1.844 4.49-3.835 6.253-5.387 1.838-1.223 3.105-2.057 3.105-2.057l-.808-2.646c-.511-1.772-1.075-4.498-1.666-8.146-.292-1.91-.588-4.055-.727-6.478-.279-2.39-.568-4.901-.855-7.44-.179-2.769-.177-6.147-.404-9.536a343.661 343.661 0 01-.419-11.483c.338-4.362 1.018-9.251 1.789-14.123.811-4.974 1.757-9.923 3.235-14.965a160.783 160.783 0 016.248-15.223c2.72-4.469 4.558-8.273 5.636-11.647 3.255-7.104 7.287-13.613 10.322-18.192l4.551-6.819s-1.96.941-5.091 2.492c-3.282 1.716-7.712 4.03-12.429 6.805-4.641 2.882-9.138 5.84-12.315 8.277a481.326 481.326 0 01-4.762 3.66s1.955-3.507 5.021-8.714c3.287-5.247 8.248-12.023 12.965-18.37 4.116-6.127 9.119-12.265 13.175-16.997a379.611 379.611 0 017.283-7.499zm175.842 105.135s-1.77.579-5.19 1.406c-1.709.399-3.799.95-6.003 1.621-2.187.678-4.681 1.42-7.299 2.231-2.482.737-5.124 1.46-8.158 2.117-3.05.651-6.366 1.334-10.033 2.171-3.829.88-8.208 1.875-12.827 2.863-4.44.951-8.949 1.905-12.979 2.901-3.554 1.094-7.096 2.183-10.825 3.452-3.968 1.234-7.93 2.479-10.581 3.82-2.69 1.316-5.468 2.587-8.05 3.926a1126.829 1126.829 0 01-7.346 3.688c-2.511 1.085-5.313 2.018-7.742 2.844-2.344.83-4.333 1.546-5.939 2.151-3.159 1.201-4.968 1.881-4.968 1.881s-3.434-1.47-8.658-4.097c-2.226-1.356-4.881-3.056-7.905-5.054-3.076-2.184-6.368-4.764-9.576-7.504-3.162-2.636-6.244-5.404-9.69-8.306-3.479-3.041-6.124-7.522-8.255-12.171a110.399 110.399 0 01-1.595-7.187c-.336-2.393-.584-4.81-.749-7.166a75.024 75.024 0 01.176-7.347c.613-2.459 1.564-5.038 2.626-7.651 1.218-2.669 2.72-5.488 4.372-8.346 1.818-2.861 4.023-5.891 6.545-9.059 2.956-3.163 6-6.156 9.002-9.088a253.531 253.531 0 019.332-8.939c7.188-5.991 13.403-11.627 18.925-16.708 6.042-4.178 11.673-7.479 17.329-9.925 7.848-1.453 15.575-2.419 22.38-3.163 6.695-.613 12.54-.937 17.288-1.089 10.227.187 16.842.572 16.842.572s2.985.955 8.191 2.71c2.591.946 5.801 2.095 9.667 3.502 3.579 1.322 7.654 2.917 11.879 4.473 4.337 1.62 9.993 3.513 16.098 5.475 5.273 1.558 10.656 2.985 16.462 3.752 6.389-.004 12.944-.779 20.119-2.048 7.319-1.834 15.012-4.153 22.606-6.443 8.865-2.608 18.065-5.852 26.369-9.806 8.415-4.337 19.375-7.513 31.21-10.57 11.903-3.031 22.049-5.837 33.203-8.665 10.328-3.472 18.32-6.48 24.908-9.348 6.178-3.038 11.034-5.749 14.916-8.326 3.579-2.57 7.047-4.786 9.744-6.691 4.324-3.608 6.617-5.672 6.617-5.672s-2.371 3.256-6.399 8.116c-5.143 4.958-12.203 11.339-20.061 17.205-9.683 5.395-21.28 10.05-32.086 12.907-11.644 3.559-19.186 6.064-19.186 6.064s-5.031 1.322-13.356 3.442c-8.104 1.858-17.987 5.581-28.048 11.42-5.598 2.673-12.046 5.382-18.355 7.835-5.96 2.133-12.009 4.096-18.221 6.101a317.284 317.284 0 01-20.533 5.663c-6.641.993-12.693 1.352-19.241 1.314-6.458-.091-13.134-.645-18.764-1.489a169.93 169.93 0 01-13.877-3.906c-4.278-1.422-8.126-2.753-11.709-3.99-3.516-1.211-6.652-2.253-9.553-3.272-6.342-1.705-11.379-2.948-14.57-3.799l-4.647-1.274s-4.163.244-10.647.765c-5.933.92-13.154 2.754-20.725 5.257-7.959 3.147-15.027 6.574-20.342 9.29-4.67 2.978-7.7 5.015-7.7 5.015s5.753-1.205 14.269-2.279c4.226-.356 9.16-.561 14.805-.449 3.075.106 6.427.273 10.075.574 3.612.346 7.349.818 11.235 1.407 4.146.642 8.496 1.334 13.06 2.198 4.027.624 7.723 1.003 11.206 1.307 7.31.891 14.551 2.035 20.789 3.088 15.616 2.14 27.592 2.497 27.592 2.497s-4.059.547-9.958 1.384c-5.766.471-12.799 1.301-17.715 2.601-4.731 1.274-9.786 2.383-13.466 3.477-3.355 1.454-5.927 2.495-5.927 2.495s-9.02-.044-21.452-.327c-6.562-.646-13.508-1.277-20.735-1.464-3.75.008-7.418.077-10.576.385-2.8.457-5.424.935-7.934 1.419-2.447.499-4.849 1.005-7.307 1.606a691.322 691.322 0 01-7.013 1.799 273.218 273.218 0 00-12.376 3.418c-6.445 2.332-10.66 3.925-10.66 3.925s-.763 2.148-1.715 5.299c-.752 3.162-.817 7.67.058 12.157 1.272 4.662 2.965 9.489 4.155 12.751 1.948 2.636 3.5 4.301 3.5 4.301s1.016-.486 2.851-1.331c1.887-.853 4.858-2.069 8.741-3.559 1.791-.755 3.729-1.492 5.847-2.265 2.163-.765 4.608-1.555 7.234-2.411 2.821-.857 5.755-1.806 8.838-2.764 3.167-.799 6.162-1.482 9.006-2.126 2.706-.64 5.316-1.181 7.622-1.716 2.368-.519 4.741-1.027 7.128-1.569 2.475-.595 5.295-1.103 8.293-1.521 2.755-.466 5.434-.912 8.632-1.195a274.17 274.17 0 0015.153-1.787c3.618-.536 5.786-.843 5.786-.843s1.032 1.307 2.819 3.19c1.755 1.842 4.92 4.42 9.272 6.745 4.798 2.324 11.128 4.704 16.056 6.623 5.185 1.931 8.394 3.109 8.394 3.109zm224.575-85.439s.696-.96 1.924-2.684c1.352-1.82 3.914-4.768 6.78-8.297 1.366-1.853 2.83-4.057 4.372-6.434 1.83-2.419 3.949-5.007 6.128-7.746 2.752-3.214 5.964-6.907 9.103-11.057 2.992-4.547 5.91-9.298 8.591-14.141 2.508-4.921 3.948-9.667 5.156-14.689 1.211-5.079 2.128-10.127 1.998-15.401-1.225-5.255-3.456-10.196-6.689-15.48-3.036-5.537-5.727-10.89-8.172-15.905-2.775-10.424-4.853-19.353-6.793-26.179-1.99-7.07-3.278-11.195-3.278-11.195l-.085 1.656s1.178 5.053 3.162 14.023a162.11 162.11 0 012.396 14.567c1.077 5.333 3.666 11.569 6.526 18.202 2.914 6.47 5.355 12.686 6.69 18.8-.32 6.573-1.986 13.163-3.635 19.633-2.903 6.824-7.525 13.898-12.894 20.796-6.105 6.746-13.704 13.364-21.484 20.046-8.305 6.564-16.618 12.378-24.045 17.539-8.582 3.922-18.796 6.381-27.528 8.303-7.713 1.923-13.885 4.401-19.117 6.508-4.635 1.972-8.039 3.698-10.995 5.522a387.227 387.227 0 00-7.156 4.917c-1.668 1.609-2.762 3.064-3.608 4.257-1.566 2.514-2.35 3.973-2.35 3.973s-4.428 3.054-13.599 8.629c-5.01 3.029-10.792 6.494-16.769 9.96-5.376 3.119-10.39 6.108-15.386 8.754-4.95 2.529-9.314 4.801-12.961 6.801-3.691 1.992-7.081 3.781-9.888 5.275-5.727 3.049-10.087 4.789-10.087 4.789s-3.494-.969-9.287-2.983c-2.293-1.063-4.726-2.287-7.069-3.718-2.062-1.428-4.858-2.94-7.468-4.631-1.392-1.875-2.244-3.916-2.365-6.012.872-1.93 2.364-3.909 3.831-6.17 1.562-1.087 3.232-2.181 5.499-3.284 2.207-1.301 4.457-2.634 7.109-4.004 3.177-1.543 6.895-3.602 10.646-5.871 4.075-2.425 9.081-4.922 13.897-7.406a980.557 980.557 0 0014.131-7.633c4.403-2.568 8.111-5 12-7.594 4.53-2.945 8.514-5.93 12.167-8.742 3.764-2.945 8.026-5.8 13.069-8.341 13.044-4.632 26.343-9.767 38.277-13.746 12.429-3.009 22.527-7.009 29.845-11.173 6.472-4.632 11.847-9.411 16.725-13.666 4.247-4.552 7.552-8.384 10.007-11.607 4.494-6.794 6.714-10.905 6.714-10.905s2.293-2.733 5.241-7.094c2.148-4.149 4.073-9.317 5.382-15.639.394-7.33.085-13.81-.108-18.652-.432-4.848-.961-8.161-.961-8.161s1.304 3.49 3.157 9.322c1.838 5.699 4.062 13.685 5.597 22.711.585 4.656.879 9.635-.223 14.834-2.43 5.194-5.788 10.598-9.861 16.119a270.13 270.13 0 01-14.447 16.033c-4.964 5.018-10.27 9.796-15.782 14.58-6.284 4.549-12.846 8.02-21.59 10.296-8.908 2.223-17.574 4.326-24.412 6.941-6.526 2.436-12.878 4.629-18.978 7.242-5.746 2.751-10.496 5.513-14.108 8.516-7.133 6.023-11.852 10.642-15.242 13.771-4.516 3.329-6.494 4.963-6.494 4.963l4.883-2.235s4.155-2.878 9.507-7.55c2.988-2.325 6.665-5.148 11.037-8.582 5.072-3.112 11.675-6.168 19.637-8.605 7.581-2.256 15.549-4.905 25.526-7.553 10.52-2.3 21.913-4.87 31.113-9.774 7.488-5.816 15.599-11.932 23.253-18.616 8.945-7.304 16.75-15.491 23.002-23.655 4.686-7.981 6.028-15.726 7.118-23.697-.367-7.472-2.119-15.274-4.876-23.585-3.601-9.029-6.454-18.261-8.151-27.594-1.877-9.617-4.019-18.755-6.154-27.017-1.965-7.778-3.714-14.102-5.414-19.68-1.703-5.422-3.137-10.041-4.4-13.885-2.684-7.952-4.064-12.19-4.064-12.19s-.194-3.697-.528-8.672c-.154-2.361-.224-4.786-.158-7.09.055-2.075.124-4.087.181-5.968.23-1.482.53-2.87.811-4.109.255-1.172.466-2.157.638-2.944.242-1.71.813-2.225.813-2.225s1.511 2.688 3.969 7.445c2.355 5.096 6.102 12.736 10.328 21.981 1.995 4.751 4.043 9.912 6.265 15.373 2.126 5.433 4.104 10.944 6.092 16.605 2.166 5.779 4.231 11.713 5.988 17.419 1.874 6.325 4.158 13.043 6.133 19.184a440.075 440.075 0 014.946 17.749c1.903 5.308 5.049 10.616 8.241 15.457 3.195 4.56 6.026 8.862 8.518 12.739 1.856 3.891 2.801 7.678 2.92 11.045-.738 6.574-1.552 11.954-1.974 15.167-.601 3.124-1.017 4.854-1.017 4.854l1.555-1.838s.902-2.53 2.3-7.021c.648-2.251 1.329-5.033 2.059-8.436.441-3.682.362-7.848-.719-12.552-2.134-4.494-4.821-9.138-7.95-14.216-3.229-5.244-5.802-10.648-7.951-16.197-1.037-5.561-2.184-11.883-3.559-18.342-.984-6.045-2.129-12.075-3.524-17.911-1.65-6.228-3.402-12.592-5.356-18.91-2.282-6.523-4.041-12.744-5.919-18.76a367.153 367.153 0 00-6.46-16.585c-2.328-5.289-4.743-10.233-7.026-14.718-1.976-4.103-3.792-7.649-5.421-10.606-1.642-2.924-2.972-5.454-4.091-7.532-2.279-4.124-3.596-6.465-3.596-6.465s-.074-1.223.079-2.532c.26-1.063 1.146-2.037 3.17-1.75 2.219.48 4.262.843 5.512.798 1.207-.207 1.972-.5 1.972-.5s.776 1.838 2.147 5.131c.69 1.61 1.546 3.566 2.54 5.838 1.042 2.35 2.279 5.018 3.798 8.33 1.822 4.101 4.165 8.979 6.917 14.822a550.544 550.544 0 014.118 9.446 631.488 631.488 0 014.157 10.14 469.965 469.965 0 013.95 10.496c1.337 3.63 2.939 7.45 4.487 11.308 1.452 3.83 2.818 7.684 3.919 11.542 1.161 3.832 2.395 7.674 3.594 11.531a299.116 299.116 0 013.09 11.402c.816 3.746 1.541 7.797 2.172 11.791.858 4.034 1.623 7.983 2.448 11.879 1.548 3.76 3.185 7.216 4.743 10.553 1.717 3.254 3.763 6.434 5.696 9.607 1.663 3.068 3.174 5.979 4.363 8.697 1.397 5.584 2.081 10.881 2.455 15.978-.048 5.058-.556 9.509-1.447 13.248a69.95 69.95 0 01-4.024 9.268c-2.491 5.025-3.649 7.736-3.649 7.736s-2.621 2.431-6.963 6.284a117.557 117.557 0 01-9.596 7.38c-3.993 2.514-8.346 5.228-12.395 7.934a311.934 311.934 0 01-13.218 8.03c-4.571 2.725-8.568 5.2-12.029 7.272-6.803 3.939-11.737 6.6-11.737 6.6zm71.879-238.81l-1.625 1.548c-.944.999-1.882 2.651-2.709 3.92-.893 1.116-1.849 2.12-2.644 2.79-.874.619-1.462 1.03-1.462 1.03-1.01-3.075-1.669-4.964-1.93-5.561-1.222-3.08-2.794-5.239-4.767-6.176-1.009-.52-2.1-.686-3.264-.54-1.179.112-2.4.479-3.718 1.167-1.674.607-3.289 1.285-4.799 2.141-1.615.902-2.929 1.98-3.817 3.428-.874 1.415-1.284 2.934-1.09 4.748.167 1.754.841 3.678 1.991 5.827 1.48 2.84 3.576 4.952 6.245 6.268 1.244.642 2.513 1.12 3.834 1.365 1.342.292 2.813.527 4.373.682 1.287.037 2.564.023 3.915.018a55.545 55.545 0 003.855-.25c1.327.006 2.558.012 3.695.059a40.2 40.2 0 013.085.226c1.037.105 2.18.484 3.348 1.145 1.13.637 2.266 1.577 3.429 2.798 1.12 1.157 2.177 2.648 3.205 4.487 1.009 1.86 1.957 4.028 3.053 6.66 1.266 2.99 2.358 5.932 3.267 8.52.91 2.463 1.665 4.924 2.309 7.224a55.044 55.044 0 011.443 7.35c.356 2.663.625 5.35.71 7.937.115 2.656.127 5.33.224 8.009.066 1.395.473 3.505.853 5.488.491 2.144 1.031 4.335 1.521 6.507.466 2.182.896 4.409 1.262 6.649.38 2.303.723 4.651.991 7.018.248 2.417.361 4.907.401 7.36a62.065 62.065 0 01-.505 6.947c-.221 1.729-.348 3.32-.532 4.781-.098 1.467-.202 2.824-.265 4.052-.547 2.639-1.255 4.945-1.931 7.068-.583 2.209-1.303 3.975-2.076 5.206-.803 1.259-1.73 2.139-2.745 2.625-.965.506-1.996.51-3.132-.109-1.133-.677-2.325-1.774-3.604-3.294-1.271-1.565-2.486-3.642-4.216-6.193-1.921-2.509-3.916-5.473-5.941-8.858-1.104-2.14-2.074-4.869-3.211-8.265a183.633 183.633 0 00-4.668-11.913s.192-1.507.505-3.695c.32-2.108.695-4.63 1.11-7.031.458-2.558.931-5.081 1.3-6.917.079-1.989.006-3.366.006-3.366 2.848 6.541 4.418 10.319 5.087 11.882 1.416 2.535 2.729 4.388 3.858 5.597 1.136 1.192 2.191 1.595 3.081 1.205.83-.432 1.435-1.632 1.633-3.7.247-1.922.615-4.079.709-7.022.018-1.809.04-3.576.057-5.453.068-1.789.057-3.57-.03-5.332-.175-3.524-.593-7.415-1.224-11.312-.259-2.859-.492-5.018-.965-7.183a34.064 34.064 0 00-2.273-6.694c-1.011-2.726-2.367-4.519-4.154-5.412-.938-.454-1.929-.774-2.948-.9a7.766 7.766 0 00-3.117.274c-.881.665-1.789 1.397-2.529 2.544-.741 1.273-1.595 2.414-2.509 3.61-.831.907-1.735 1.68-2.677 2.399-.921.765-1.919 1.481-2.915 2.043-.842.34-1.797.102-2.964-.713-1.177-.81-2.71-2.303-4.481-4.375-1.801-1.947-3.653-4.681-5.643-8.081-2.036-3.38-4.238-7.328-6.603-11.777a407.845 407.845 0 01-6.904-13.293c-2.094-4.149-3.856-7.983-4.922-10.866-.966-2.815-1.848-5.597-2.466-8.159-.57-2.514-.775-4.991-.485-6.849.447-1.786 1.326-3.412 2.654-4.747 1.361-1.321 2.964-2.539 4.781-3.71a32.41 32.41 0 012.931-1.562 43.19 43.19 0 013.137-1.219c.991-.447 2.025-.858 3.071-1.274a39.086 39.086 0 013.34-1.265c1.801-.858 3.424-1.68 4.926-2.393 1.456-.72 2.792-1.43 4.09-1.942a18.405 18.405 0 014.04-.75c1.413-.087 2.784-.045 4.115.252 1.332.366 2.545.938 3.681 1.78 1.091.835 2.083 1.922 2.982 3.245a34.193 34.193 0 012.595 4.558c.776 1.614 1.439 3.417 1.966 5.42.26 1.072.547 2.495.818 4.26.291 1.687.613 3.667.978 6.033z" fill="url(#paint0_linear_312_295)"/><defs><linearGradient id="paint0_linear_312_295" x1="342.873" y1="160.515" x2="230.957" y2="393.192" gradientUnits="userSpaceOnUse"><stop stop-color="#A9D137"/><stop offset="1" stop-color="#43D137"/></linearGradient></defs></svg>